<svg width="339" height="24" viewBox="0 0 339 24" fill="none" xmlns="http://www.w3.org/2000/svg">
<g clip-path="url(#clip0_137_346)">
<path d="M40.0439 6.6128C42.6148 6.61282 44.6852 8.68353 44.6855 11.2544V15.2563C44.6855 17.8274 42.6149 19.8979 40.0439 19.8979C39.0735 19.8979 38.1827 19.5285 37.5624 18.9682V22.9194C37.5624 23.6297 37.0226 24.0005 36.4823 24.0005C35.9421 24.0005 35.4023 23.6297 35.4023 22.9194V11.2544C35.4025 8.68352 37.4729 6.6128 40.0439 6.6128ZM230.983 6.59327C233.554 6.59327 235.625 8.6638 235.625 11.2348V15.2368C235.624 17.8077 233.554 19.8784 230.983 19.8784C230.013 19.8784 229.122 19.508 228.502 18.9477V22.8999C228.501 23.61 227.962 23.98 227.421 23.98C226.881 23.9799 226.342 23.61 226.341 22.8999V11.2348C226.341 8.6638 228.412 6.59328 230.983 6.59327ZM95.8173 6.6128C98.3881 6.61291 100.458 8.68359 100.459 11.2544V12.7651C100.459 13.3453 99.9589 13.846 99.3788 13.8462H93.3358V15.2466C93.3359 16.547 94.5865 17.7269 96.037 17.727C96.8574 17.727 97.5674 17.487 98.1376 16.9067C98.3776 16.5568 98.678 16.4069 98.998 16.4067C99.5582 16.4067 100.119 16.9075 100.119 17.4878C100.119 17.7077 100.048 17.8977 99.8983 18.1177C99.8946 18.1238 99.8051 18.2724 99.6191 18.4682C98.7087 19.4386 97.3475 19.8979 96.037 19.8979C93.556 19.8978 91.1747 17.8874 91.1747 15.2563V11.2544C91.1749 8.68352 93.2464 6.6128 95.8173 6.6128ZM106.381 6.60303C109.062 6.60323 110.683 8.33363 110.683 10.7544V15.7466C110.683 18.2474 108.632 19.8977 106.341 19.8979C104.141 19.8979 101.979 18.5778 101.979 15.9868C101.979 13.5859 103.97 12.425 106.041 11.9848L108.522 11.4448V10.7544C108.522 9.54413 107.892 8.76433 106.381 8.76417C104.781 8.76417 104.61 10.0844 103.589 10.0844C103.009 10.0843 102.509 9.63355 102.509 9.00342C102.51 8.65346 102.68 8.35378 102.9 8.11378C103.76 7.12341 105.061 6.60303 106.381 6.60303ZM113.824 3.43116C114.364 3.43116 114.905 3.80192 114.905 4.51221V6.82276H118.296C119.006 6.82276 119.376 7.36274 119.377 7.90284C119.377 8.44306 119.006 8.98389 118.296 8.98389H114.905V16.4165C114.905 17.0868 115.405 17.7378 116.465 17.7378C117.526 17.7377 117.866 16.9372 118.536 16.937C119.246 16.937 119.636 17.5372 119.636 18.1274C119.636 18.5575 119.336 18.7975 119.006 19.0376C118.276 19.5777 117.366 19.8978 116.456 19.8979C114.355 19.8979 112.734 18.4273 112.734 16.4165V4.51221H112.744C112.744 3.80203 113.284 3.43128 113.824 3.43116ZM141.095 6.6128C143.666 6.6128 145.737 8.68352 145.737 11.2544V12.7651C145.737 13.3454 145.237 13.8462 144.657 13.8462H138.615V15.2466C138.615 16.5469 139.865 17.7268 141.315 17.727C142.135 17.727 142.846 17.487 143.417 16.9067C143.657 16.5568 143.957 16.4067 144.277 16.4067C144.837 16.4068 145.397 16.9076 145.397 17.4878C145.397 17.7077 145.327 17.8977 145.177 18.1177C145.177 18.1177 145.087 18.2682 144.897 18.4682C143.987 19.4385 142.625 19.8979 141.315 19.8979C138.834 19.8977 136.454 17.8872 136.454 15.2563V11.2544C136.454 8.68356 138.524 6.61286 141.095 6.6128ZM50.9482 6.59327C52.2687 6.59327 54.0399 7.17328 54.8202 8.36378C54.9701 8.58366 55.0399 8.77376 55.0399 8.99366C55.0399 9.57375 54.4799 10.0744 53.9198 10.0747C53.5997 10.0747 53.3196 9.90387 53.0595 9.57374C52.5793 8.97349 51.7182 8.75342 50.9579 8.75342C49.3574 8.75351 48.6073 9.61422 48.6073 10.7446V15.7368C48.6074 16.8571 49.3675 17.7269 50.9579 17.727C51.7783 17.727 52.4892 17.487 53.0595 16.9067C53.2995 16.5569 53.5998 16.4067 53.9198 16.4067C54.4799 16.407 55.0399 16.9077 55.0399 17.4878C55.0399 17.7076 54.9701 17.8978 54.8202 18.1177C53.9599 19.3282 52.3988 19.8882 50.9482 19.8882C48.3571 19.8882 46.4365 18.2477 46.4364 15.7368V10.7446C46.4364 8.23359 48.3571 6.59327 50.9482 6.59327ZM76.8495 6.59327C78.17 6.59339 79.9404 7.17341 80.7206 8.36378C80.8706 8.58377 80.9403 8.77368 80.9403 8.99366C80.9403 9.5739 80.3805 10.0747 79.8202 10.0747C79.5001 10.0746 79.2199 9.90384 78.9599 9.57374C78.4797 8.97373 77.6194 8.75346 76.8593 8.75342C75.2586 8.75342 74.5077 9.61416 74.5077 10.7446V15.7368C74.5078 16.8572 75.2687 17.727 76.8593 17.727C77.6795 17.727 78.3897 17.4869 78.9599 16.9067C79.1999 16.5568 79.5002 16.4067 79.8202 16.4067C80.3805 16.4067 80.9403 16.9075 80.9403 17.4878C80.9403 17.7077 80.8706 17.8977 80.7206 18.1177C79.8603 19.328 78.3 19.888 76.8495 19.8882C74.2585 19.8882 72.3369 18.2477 72.3368 15.7368V10.7446C72.3368 8.23359 74.2584 6.59327 76.8495 6.59327ZM166.947 6.58253C168.267 6.58265 170.038 7.16365 170.818 8.35401C170.968 8.57399 171.038 8.76389 171.038 8.98389C171.038 9.56411 170.478 10.0639 169.918 10.0639C169.597 10.0639 169.317 9.89407 169.057 9.56397C168.577 8.96386 167.717 8.7437 166.957 8.74366C165.356 8.74366 164.605 9.6044 164.605 10.7348V15.727C164.605 16.8473 165.366 17.7173 166.957 17.7173C167.777 17.7172 168.487 17.4771 169.057 16.8969C169.297 16.5469 169.597 16.397 169.918 16.3969C170.478 16.3969 171.037 16.8969 171.038 17.477C171.038 17.6971 170.968 17.8878 170.818 18.1079C169.958 19.3181 168.397 19.8783 166.947 19.8784C164.356 19.8784 162.434 18.2378 162.434 15.727V10.7348C162.434 8.22382 164.356 6.58253 166.947 6.58253ZM182.052 6.59327C184.623 6.59327 186.694 8.6638 186.694 11.2348V12.7456C186.694 13.3257 186.194 13.8257 185.614 13.8257H179.572V15.2261C179.572 16.5265 180.822 17.7072 182.272 17.7075C183.092 17.7075 183.803 17.4674 184.374 16.8872C184.614 16.5371 184.914 16.3872 185.234 16.3872C185.794 16.3873 186.354 16.8871 186.354 17.4673C186.354 17.6872 186.284 17.8772 186.134 18.0971C186.134 18.0971 186.044 18.2477 185.854 18.4477C184.944 19.4181 183.583 19.8784 182.272 19.8784C179.791 19.8781 177.411 17.8675 177.411 15.2368V11.2348C177.411 8.66383 179.481 6.59332 182.052 6.59327ZM204.181 6.58253C205.502 6.58253 207.273 7.16351 208.053 8.35401C208.203 8.57397 208.273 8.7639 208.273 8.98389C208.273 9.56411 207.713 10.0639 207.153 10.0639C206.833 10.0639 206.553 9.89411 206.293 9.56397C205.812 8.96385 204.952 8.74372 204.192 8.74366C202.591 8.74366 201.84 9.6044 201.84 10.7348V15.727C201.841 16.8473 202.602 17.7173 204.192 17.7173C205.012 17.7172 205.722 17.4771 206.293 16.8969C206.533 16.5469 206.833 16.397 207.153 16.3969C207.713 16.3969 208.273 16.8969 208.273 17.477C208.273 17.6971 208.203 17.8878 208.053 18.1079C207.193 19.3183 205.632 19.8784 204.181 19.8784C201.591 19.8782 199.67 18.2377 199.67 15.727V10.7348C199.67 8.22397 201.59 6.58271 204.181 6.58253ZM214.756 6.59327C217.327 6.59349 219.398 8.66394 219.398 11.2348V12.7456C219.398 13.3256 218.898 13.8254 218.318 13.8257H212.275V15.2261C212.275 16.5266 213.526 17.7075 214.976 17.7075C215.796 17.7075 216.507 17.4673 217.077 16.8872C217.317 16.5371 217.617 16.3873 217.937 16.3872C218.497 16.3872 219.058 16.8871 219.058 17.4673C219.058 17.6873 218.987 17.8771 218.838 18.0971C218.838 18.0971 218.747 18.2476 218.557 18.4477C217.647 19.418 216.287 19.8784 214.976 19.8784C212.495 19.8784 210.114 17.8677 210.114 15.2368V11.2348C210.114 8.6638 212.185 6.59327 214.756 6.59327ZM242.097 6.58253C244.778 6.58253 246.4 8.31386 246.4 10.7348V15.727C246.4 18.2277 244.349 19.8782 242.058 19.8784C239.857 19.8784 237.696 18.5574 237.696 15.9663C237.696 13.5657 239.687 12.4055 241.757 11.9653L244.239 11.4253V10.7348C244.239 9.52436 243.608 8.74366 242.097 8.74366C240.497 8.74392 240.327 10.0639 239.306 10.0639C238.726 10.0638 238.226 9.614 238.226 8.98389C238.226 8.63381 238.396 8.33335 238.616 8.09327C239.476 7.10297 240.777 6.58265 242.097 6.58253ZM155.902 6.58253C157.242 6.58259 158.793 7.31346 159.553 8.48389C159.683 8.6738 159.723 8.89357 159.723 9.0835C159.723 9.69368 159.183 10.1644 158.603 10.1645C158.283 10.1645 158.003 9.99414 157.743 9.64405C157.313 9.04385 156.682 8.69391 155.902 8.69385C154.731 8.69385 154.131 9.36396 154.131 10.0942C154.131 12.3151 160.204 11.5652 160.204 16.0171C160.204 18.4379 158.022 19.8579 155.752 19.8579L155.523 19.8716C154.306 19.8061 152.795 19.249 152.11 18.2173C151.96 17.9975 151.89 17.7876 151.89 17.5678C151.89 16.9877 152.45 16.4869 153.01 16.4868C153.31 16.4868 153.611 16.6574 153.871 16.9575C154.351 17.5376 155.081 17.7573 155.752 17.7573C157.282 17.7573 158.043 16.8471 158.043 16.0268C158.043 13.3657 151.97 14.3658 151.97 10.104C151.97 7.72321 154.021 6.58253 155.902 6.58253ZM134.592 6.82276C135.153 6.82276 135.713 7.23351 135.713 7.86378C135.713 7.99373 135.693 8.14356 135.623 8.29346L131.531 18.9878C131.311 19.568 130.931 19.8481 130.541 19.8481C130.131 19.848 129.74 19.5679 129.52 18.9878L125.419 8.29346C125.359 8.14361 125.329 7.99369 125.329 7.86378C125.329 7.23365 125.889 6.82294 126.449 6.82276C126.839 6.82276 127.229 7.01301 127.42 7.51319L130.531 15.7866L133.623 7.51319C133.813 7.0132 134.202 6.82283 134.592 6.82276ZM275.902 4.43214C276.022 4.43214 276.122 4.47222 276.213 4.55225C276.302 4.63217 276.342 4.74191 276.342 4.87159V7.87354H280.444C280.734 7.87359 280.884 8.02318 280.884 8.31299C280.884 8.60307 280.734 8.75338 280.444 8.75342H276.342V16.9565C276.342 17.5268 276.543 17.9973 276.953 18.3774C277.363 18.7575 277.903 18.9477 278.573 18.9477C279.243 18.9477 279.864 18.7173 280.354 18.2671C280.444 18.1973 280.544 18.1577 280.664 18.1577C280.784 18.1577 280.884 18.2074 280.984 18.2973C281.084 18.3874 281.125 18.4976 281.125 18.6177C281.125 18.7177 281.004 18.8776 280.774 19.0776C280.084 19.5778 279.353 19.8286 278.583 19.8286C277.673 19.8285 276.932 19.5582 276.342 19.0083C275.762 18.458 275.462 17.7769 275.462 16.9565V8.75342H273.251C272.961 8.75333 272.811 8.60303 272.811 8.31299C272.811 8.02323 272.961 7.87363 273.251 7.87354H275.462V4.87159C275.462 4.74191 275.502 4.63217 275.591 4.55225C275.681 4.47222 275.782 4.43214 275.902 4.43214ZM317.449 2.94092C317.569 2.94092 317.669 2.98101 317.759 3.06104C317.849 3.14107 317.889 3.25134 317.889 3.38135V16.3872C317.889 16.9172 317.989 17.4277 318.199 17.9477C318.399 18.4578 318.719 18.8079 319.139 18.978C319.327 19.0671 319.417 19.205 319.419 19.3921C319.418 19.5103 319.378 19.6087 319.299 19.6977C319.219 19.7878 319.12 19.8286 319 19.8286C318.87 19.8286 318.7 19.7583 318.5 19.6284C317.509 18.9882 317.008 17.9076 317.008 16.3872V3.38135C317.008 3.2513 317.049 3.14107 317.139 3.06104C317.229 2.98123 317.329 2.94095 317.449 2.94092ZM286.386 7.66358C287.497 7.66358 288.447 8.06368 289.248 8.85401C290.048 9.65418 290.438 10.6042 290.438 11.7143V13.2456C290.438 13.3654 290.398 13.4652 290.308 13.5552C290.218 13.6452 290.118 13.686 289.998 13.686H283.205V15.7661C283.205 16.6264 283.545 17.3771 284.225 18.0073C284.905 18.6375 285.696 18.9476 286.606 18.9477C287.086 18.9477 287.587 18.848 288.107 18.6479C288.627 18.4479 289.007 18.1776 289.257 17.8276C289.347 17.6976 289.468 17.6275 289.628 17.6274C289.748 17.6274 289.848 17.6673 289.938 17.7573C290.028 17.8473 290.068 17.9479 290.068 18.0678C290.068 18.1679 289.968 18.3381 289.788 18.5678C288.997 19.3981 287.937 19.8178 286.606 19.8178C285.476 19.8178 284.486 19.4274 283.626 18.6372C282.765 17.8469 282.335 16.8865 282.335 15.7661V11.7143C282.335 10.6042 282.735 9.65418 283.525 8.85401C284.325 8.05368 285.276 7.66358 286.386 7.66358ZM296.44 7.65284C297.07 7.65284 297.701 7.78359 298.341 8.0337C298.981 8.29374 299.481 8.66361 299.841 9.16358C299.881 9.25361 299.912 9.33379 299.912 9.40381C299.912 9.52386 299.862 9.62432 299.772 9.71436C299.682 9.80433 299.572 9.84423 299.452 9.84424C299.392 9.84424 299.342 9.83419 299.292 9.80421C299.242 9.77419 299.201 9.75414 299.181 9.72413C299.161 9.69415 299.132 9.66394 299.082 9.60401C299.032 9.54413 299.012 9.50378 298.992 9.49366C298.352 8.85346 297.501 8.53377 296.451 8.5337C295.5 8.5337 294.76 8.78353 294.21 9.2837C293.669 9.78386 293.399 10.4241 293.399 11.2143V16.2768C293.399 17.0671 293.669 17.7073 294.21 18.2075C294.75 18.7077 295.5 18.9575 296.451 18.9575C296.931 18.9574 297.431 18.8577 297.951 18.6577C298.471 18.4577 298.851 18.1874 299.101 17.8374C299.191 17.7074 299.311 17.6373 299.471 17.6372C299.591 17.6372 299.692 17.6771 299.782 17.7671C299.87 17.8557 299.909 17.9542 299.911 18.0718C299.908 18.1723 299.809 18.3411 299.622 18.5678C298.831 19.3981 297.771 19.8178 296.44 19.8178C295.27 19.8178 294.329 19.4982 293.599 18.8481C292.869 18.1979 292.508 17.3373 292.508 16.2671V11.2046C292.508 10.1341 292.869 9.28381 293.599 8.62354C294.319 7.97335 295.27 7.65291 296.44 7.65284ZM324.102 7.67335C325.252 7.67342 326.163 7.99304 326.823 8.64307C327.483 9.29325 327.813 10.1539 327.813 11.2241L327.823 11.2046V16.2671C327.823 17.3072 327.453 18.1577 326.723 18.8178C325.993 19.4781 325.112 19.8178 324.072 19.8178C323.032 19.8178 322.131 19.5182 321.401 18.9282C320.671 18.338 320.3 17.5172 320.3 16.4868C320.3 15.5665 320.62 14.8263 321.251 14.2661C321.891 13.7059 322.702 13.3153 323.692 13.0952L326.933 12.395V11.2143C326.933 10.3942 326.693 9.74431 326.213 9.26417C325.732 8.78399 325.032 8.54349 324.112 8.54346C323.642 8.54346 323.232 8.61343 322.881 8.75342C322.531 8.89346 322.271 9.04358 322.111 9.20362C321.951 9.36361 321.801 9.51381 321.651 9.65381C321.501 9.79374 321.381 9.86364 321.281 9.86378C321.161 9.86378 321.06 9.82369 320.97 9.74366C320.88 9.66366 320.84 9.5638 320.84 9.44385C320.84 9.31386 320.93 9.14382 321.1 8.94385C321.831 8.0935 322.832 7.67335 324.102 7.67335ZM330.575 2.94092C330.695 2.94098 330.794 2.98122 330.884 3.06104C330.974 3.14107 331.015 3.2513 331.015 3.38135V9.19385C331.816 8.1736 332.875 7.66362 334.196 7.66358C335.316 7.66358 336.277 8.06368 337.067 8.85401C337.857 9.65422 338.248 10.6041 338.248 11.7143H338.238V15.7661C338.238 16.8966 337.848 17.8478 337.057 18.6382C336.267 19.4283 335.306 19.8178 334.186 19.8178C333.066 19.8178 332.105 19.4283 331.315 18.6382C330.525 17.8478 330.134 16.8866 330.134 15.7661V3.38135C330.134 3.25131 330.174 3.14107 330.264 3.06104C330.354 2.98101 330.455 2.94092 330.575 2.94092ZM258.604 1.94092C259.144 1.94092 259.685 2.31084 259.685 3.021V12.4253L264.157 7.19288C264.397 6.91297 264.677 6.78286 264.957 6.78272C265.537 6.78272 266.078 7.30306 266.078 7.88331C266.078 8.12338 265.988 8.36367 265.797 8.57374L262.386 12.5747L266.408 17.937C266.578 18.157 266.648 18.3874 266.648 18.5874C266.648 19.1876 266.087 19.688 265.527 19.688L265.405 19.6723C265.143 19.6431 264.887 19.508 264.677 19.228L260.935 14.2563L259.685 15.7261V18.5776C259.685 19.2879 259.144 19.6577 258.604 19.6577C258.064 19.6575 257.524 19.2878 257.524 18.5776V3.021C257.524 2.31099 258.064 1.94108 258.604 1.94092ZM58.4218 6.82276C58.9618 6.82286 59.5016 7.19292 59.5019 7.90284V18.5981C59.5016 19.308 58.9618 19.6781 58.4218 19.6782C57.8817 19.6782 57.3409 19.3081 57.3407 18.5981V7.90284C57.3409 7.19282 57.8817 6.82276 58.4218 6.82276ZM122.368 6.82276C122.908 6.82276 123.448 7.19282 123.448 7.90284V18.5981C123.448 19.3081 122.908 19.6782 122.368 19.6782C121.828 19.6782 121.288 19.3081 121.288 18.5981V7.90284C121.288 7.19285 121.828 6.8228 122.368 6.82276ZM86.8837 6.60303C87.8741 6.60313 89.1545 7.03323 89.8847 7.79346C90.1046 8.0334 90.2049 8.2933 90.205 8.55323C90.205 9.13343 89.6646 9.65374 89.1044 9.65381C88.8444 9.65381 88.5642 9.54417 88.3241 9.30421L88.2841 9.26417C87.894 8.94411 87.3738 8.76425 86.8837 8.76417C85.6532 8.76417 84.8329 9.58427 84.8329 11.395V18.5874C84.8329 19.2977 84.2921 19.6684 83.7519 19.6684C83.2117 19.6683 82.6718 19.2976 82.6718 18.5874V11.395C82.6718 8.86397 84.0525 6.60303 86.8837 6.60303ZM192.987 6.59327C195.558 6.59327 197.629 8.6638 197.629 11.2348V18.5776C197.629 19.2879 197.089 19.6587 196.548 19.6587C196.008 19.6586 195.468 19.2878 195.468 18.5776V11.2348C195.468 9.85429 194.367 8.75342 192.987 8.75342C191.606 8.75357 190.506 9.85438 190.506 11.2348V18.5776C190.506 19.2879 189.966 19.6587 189.425 19.6587C188.885 19.6585 188.345 19.2878 188.345 18.5776V11.2348C188.345 8.66389 190.416 6.59341 192.987 6.59327ZM174.42 6.80323C174.96 6.80323 175.5 7.17301 175.5 7.88331V18.5776C175.5 19.2879 174.96 19.6577 174.42 19.6577C173.879 19.6577 173.339 19.2879 173.339 18.5776V7.88331C173.339 7.17305 173.879 6.80327 174.42 6.80323ZM252.671 6.58253C253.662 6.58253 254.943 7.01268 255.673 7.77296C255.894 8.01306 255.994 8.27359 255.994 8.5337C255.994 9.11381 255.453 9.63408 254.893 9.63428C254.633 9.63428 254.353 9.52376 254.113 9.2837L254.073 9.24366C253.683 8.92352 253.162 8.74366 252.671 8.74366C251.441 8.74386 250.621 9.5642 250.621 11.3745V18.5678C250.621 19.2781 250.081 19.6479 249.541 19.6479C249 19.6479 248.461 19.2781 248.461 18.5678V11.3745C248.461 8.84372 249.841 6.58276 252.671 6.58253ZM302.313 2.94092C302.433 2.94099 302.533 2.98121 302.623 3.06104C302.713 3.14107 302.753 3.2513 302.753 3.38135V9.19385C303.553 8.17346 304.614 7.66361 305.934 7.66358C307.055 7.66358 308.015 8.06368 308.805 8.85401C309.595 9.65421 309.986 10.6041 309.986 11.7143H309.996V19.1675C309.996 19.2975 309.956 19.4077 309.866 19.4878C309.776 19.5677 309.676 19.6078 309.556 19.6079C309.436 19.6079 309.336 19.5678 309.246 19.4878C309.156 19.4077 309.116 19.2975 309.116 19.1675V11.7143C309.116 10.8343 308.805 10.0844 308.185 9.46436C307.565 8.8441 306.815 8.5337 305.934 8.5337C305.054 8.53372 304.303 8.84413 303.683 9.46436C303.063 10.0844 302.753 10.8343 302.753 11.7143V19.1675C302.753 19.2975 302.713 19.4077 302.623 19.4878C302.533 19.5677 302.433 19.6078 302.313 19.6079C302.193 19.6079 302.093 19.5678 302.003 19.4878C301.913 19.4078 301.873 19.2974 301.873 19.1675V3.38135C301.873 3.2513 301.913 3.14107 302.003 3.06104C302.093 2.98102 302.193 2.94092 302.313 2.94092ZM319.42 19.3979L319.419 19.3921L319.42 19.3882V19.3979ZM334.176 8.5337C333.296 8.5337 332.546 8.8441 331.925 9.46436C331.305 10.0845 330.995 10.8342 330.995 11.7143V15.7661C330.995 16.6464 331.305 17.3968 331.925 18.0171C332.546 18.6373 333.296 18.9477 334.176 18.9477C335.057 18.9477 335.797 18.6373 336.427 18.0171C337.057 17.3969 337.357 16.6463 337.357 15.7661V11.7143C337.357 10.8344 337.047 10.0844 336.427 9.46436C335.807 8.84417 335.057 8.53377 334.176 8.5337ZM323.832 13.9956C323.021 14.1857 322.381 14.4963 321.901 14.9165C321.421 15.3366 321.18 15.8666 321.18 16.4868C321.18 17.227 321.451 17.8269 321.981 18.2671C322.511 18.7072 323.212 18.938 324.072 18.938C324.932 18.9379 325.572 18.688 326.123 18.188C326.673 17.6878 326.943 17.0471 326.943 16.2768V13.3052L323.832 13.9956ZM299.912 18.0776L299.911 18.0718L299.912 18.0678V18.0776ZM106.251 14.0659C104.82 14.366 104.131 15.1662 104.13 15.9663C104.13 17.0067 104.911 17.7378 106.311 17.7378C107.632 17.7377 108.512 16.877 108.512 15.7466V13.5473L106.251 14.0659ZM40.0439 8.76417C38.6633 8.76417 37.5625 9.86414 37.5624 11.2446V15.2466C37.5625 16.6271 38.6633 17.727 40.0439 17.727C41.4244 17.727 42.5252 16.6271 42.5253 15.2466V11.2446C42.5252 9.86415 41.4244 8.76419 40.0439 8.76417ZM230.983 8.75342C229.602 8.75343 228.502 9.8543 228.502 11.2348V15.2368C228.502 16.6172 229.603 17.7173 230.983 17.7173C232.363 17.7173 233.464 16.6172 233.464 15.2368V11.2348C233.464 9.85429 232.364 8.75342 230.983 8.75342ZM241.967 14.0464C240.537 14.3466 239.847 15.1465 239.847 15.9468C239.847 16.9872 240.627 17.7173 242.028 17.7173C243.348 17.7172 244.229 16.8572 244.229 15.727V13.5278L241.967 14.0464ZM66.0849 11.8247C66.8649 11.8249 67.5144 12.4753 67.5146 13.2553C67.5146 14.0355 66.865 14.6858 66.0849 14.686C65.3045 14.686 64.6542 14.0357 64.6542 13.2553C64.6543 12.4751 65.3046 11.8247 66.0849 11.8247ZM286.377 8.52393C285.496 8.52393 284.746 8.8335 284.126 9.45362C283.505 10.0738 283.195 10.8243 283.195 11.7046V12.8052H289.557V11.7046C289.557 10.8243 289.248 10.0738 288.628 9.45362C288.007 8.83341 287.257 8.52398 286.377 8.52393ZM95.8271 8.77393C94.4466 8.77395 93.3458 9.87403 93.3456 11.2544V11.685H98.3183V11.2544H98.3085C98.3083 9.87402 97.2075 8.77393 95.8271 8.77393ZM141.105 8.77393C139.725 8.77413 138.625 9.87414 138.625 11.2544V11.685H143.596V11.2544H143.587C143.586 9.87402 142.486 8.77393 141.105 8.77393ZM182.062 8.75342C180.682 8.75361 179.582 9.85441 179.582 11.2348V11.6645H184.553V11.2348H184.544C184.544 9.85429 183.443 8.75342 182.062 8.75342ZM214.766 8.75342C213.386 8.75342 212.285 9.85429 212.285 11.2348V11.6645H217.257V11.2348H217.247C217.247 9.85435 216.147 8.75352 214.766 8.75342ZM58.4218 1.96046C59.2019 1.96058 59.8523 2.61099 59.8524 3.39112C59.8524 4.17137 59.202 4.82166 58.4218 4.82178C57.6415 4.82178 56.9911 4.17144 56.9911 3.39112C56.9913 2.61091 57.6415 1.96046 58.4218 1.96046ZM122.368 1.96046C123.148 1.96046 123.798 2.61091 123.798 3.39112C123.798 4.17144 123.148 4.82178 122.368 4.82178C121.587 4.82174 120.937 4.17142 120.937 3.39112C120.937 2.61094 121.588 1.9605 122.368 1.96046ZM174.42 1.94092C175.2 1.94092 175.85 2.59126 175.85 3.37159C175.85 4.15181 175.2 4.80225 174.42 4.80225C173.639 4.8022 172.999 4.15178 172.999 3.37159C172.999 2.59129 173.649 1.94097 174.42 1.94092Z" fill="black"/>
<path d="M23.1671 19.8983L14.7036 16.2668L20.0658 11.4048L22.4868 15.6765C23.3772 17.2472 23.6173 18.7678 23.1671 19.9083M18.9053 22.0792H8.30091L13.363 17.4873L22.0967 21.2389C21.3163 21.7891 20.2159 22.0892 18.9053 22.0892M5.85989 22.0592C4.13917 21.9592 2.82863 21.3189 2.22838 20.2584C1.82821 19.5482 1.73817 18.6578 1.94826 17.6674L6.88032 14.6861L11.7023 16.757L5.85989 22.0592ZM7.78069 6.76282L11.4822 9.98416L3.08873 15.0463L7.78069 6.76282ZM9.15126 4.36182C9.2413 4.20175 9.33134 4.05169 9.43138 3.91163C10.3518 2.58108 11.4822 1.83076 12.6127 1.83076C13.253 1.83076 13.8932 2.07086 14.5035 2.53106L11.8324 8.10338L8.62104 5.30221L9.16127 4.37182L9.15126 4.36182ZM15.4039 13.4056L13.0429 15.5465L8.61104 13.6457L12.7828 11.1246L15.4039 13.4056ZM15.774 3.89162C15.8741 4.04169 15.9741 4.20175 16.0742 4.37182L16.6344 5.34223L19.2355 9.93414L16.6344 12.2951L13.1329 9.24385L15.734 3.8316C15.734 3.8316 15.764 3.87161 15.784 3.90163M24.0875 14.7662L17.7949 3.65152C16.4843 1.33056 14.5935 0 12.6127 0C10.6319 0 8.74109 1.33056 7.43055 3.65152L1.13792 14.7662C-0.172626 17.0871 -0.362705 19.4181 0.627708 21.1688C1.61812 22.9196 3.68899 23.92 6.32008 23.92H18.9053C21.5364 23.92 23.6073 22.9196 24.5977 21.1688C25.5881 19.4181 25.398 17.0871 24.0875 14.7662Z" fill="#874FFF"/>
</g>
<defs>
<clipPath id="clip0_137_346">
<rect width="339" height="24" fill="white"/>
</clipPath>
</defs>
</svg>
