<svg xmlns="http://www.w3.org/2000/svg" width="339" height="24" viewBox="0 0 339 24" fill="none"><path d="M40.0446 6.61287C42.6155 6.61289 44.6859 8.6836 44.6862 11.2545V15.2564C44.6862 17.8275 42.6156 19.898 40.0446 19.898C39.0742 19.898 38.1834 19.5286 37.5631 18.9683V22.9195C37.5631 23.6298 37.0233 24.0006 36.483 24.0006C35.9428 24.0006 35.403 23.6298 35.403 22.9195V11.2545C35.4032 8.68359 37.4736 6.61287 40.0446 6.61287ZM230.984 6.59334C233.555 6.59334 235.626 8.66387 235.626 11.2349V15.2369C235.625 17.8078 233.555 19.8785 230.984 19.8785C230.014 19.8785 229.123 19.5081 228.503 18.9478V22.9C228.502 23.6101 227.963 23.9801 227.422 23.9801C226.882 23.98 226.343 23.6101 226.342 22.9V11.2349C226.342 8.66387 228.413 6.59335 230.984 6.59334ZM95.818 6.61287C98.3888 6.61298 100.459 8.68366 100.46 11.2545V12.7652C100.46 13.3454 99.9596 13.8461 99.3795 13.8463H93.3365V15.2467C93.3366 16.5471 94.5872 17.727 96.0377 17.7271C96.8581 17.7271 97.5681 17.4871 98.1383 16.9068C98.3783 16.5569 98.6787 16.407 98.9987 16.4068C99.5589 16.4068 100.12 16.9076 100.12 17.4879C100.12 17.7078 100.049 17.8978 99.899 18.1178C99.8953 18.1239 99.8058 18.2725 99.6198 18.4683C98.7094 19.4387 97.3482 19.898 96.0377 19.898C93.5567 19.8979 91.1754 17.8875 91.1754 15.2564V11.2545C91.1756 8.68359 93.2471 6.61287 95.818 6.61287ZM106.382 6.6031C109.063 6.6033 110.684 8.3337 110.684 10.7545V15.7467C110.684 18.2475 108.633 19.8978 106.342 19.898C104.142 19.898 101.98 18.5779 101.98 15.9869C101.98 13.586 103.971 12.4251 106.042 11.9849L108.523 11.4449V10.7545C108.523 9.5442 107.893 8.7644 106.382 8.76424C104.782 8.76424 104.611 10.0845 103.59 10.0845C103.01 10.0844 102.51 9.63362 102.51 9.00349C102.511 8.65353 102.681 8.35385 102.901 8.11385C103.761 7.12348 105.062 6.6031 106.382 6.6031ZM113.825 3.43123C114.365 3.43123 114.906 3.80199 114.906 4.51228V6.82283H118.297C119.007 6.82283 119.377 7.36281 119.378 7.90291C119.378 8.44313 119.007 8.98396 118.297 8.98396H114.906V16.4166C114.906 17.0869 115.406 17.7379 116.466 17.7379C117.527 17.7378 117.867 16.9373 118.537 16.9371C119.247 16.9371 119.637 17.5373 119.637 18.1275C119.637 18.5576 119.337 18.7976 119.007 19.0377C118.277 19.5778 117.367 19.8979 116.457 19.898C114.356 19.898 112.735 18.4274 112.735 16.4166V4.51228H112.745C112.745 3.8021 113.285 3.43135 113.825 3.43123ZM141.096 6.61287C143.667 6.61287 145.738 8.68359 145.738 11.2545V12.7652C145.738 13.3455 145.238 13.8463 144.658 13.8463H138.616V15.2467C138.616 16.547 139.866 17.7269 141.316 17.7271C142.136 17.7271 142.847 17.4871 143.418 16.9068C143.658 16.5569 143.958 16.4068 144.278 16.4068C144.838 16.4069 145.398 16.9077 145.398 17.4879C145.398 17.7078 145.328 17.8978 145.178 18.1178C145.178 18.1178 145.088 18.2683 144.898 18.4683C143.988 19.4386 142.626 19.898 141.316 19.898C138.835 19.8978 136.455 17.8873 136.455 15.2564V11.2545C136.455 8.68363 138.525 6.61293 141.096 6.61287ZM50.9489 6.59334C52.2694 6.59334 54.0406 7.17335 54.8209 8.36385C54.9708 8.58373 55.0406 8.77383 55.0406 8.99373C55.0406 9.57382 54.4806 10.0745 53.9205 10.0748C53.6004 10.0748 53.3203 9.90394 53.0602 9.57381C52.58 8.97356 51.7189 8.75349 50.9586 8.75349C49.3581 8.75358 48.608 9.61429 48.608 10.7447V15.7369C48.6081 16.8572 49.3682 17.727 50.9586 17.7271C51.779 17.7271 52.4899 17.4871 53.0602 16.9068C53.3002 16.557 53.6005 16.4068 53.9205 16.4068C54.4806 16.4071 55.0406 16.9078 55.0406 17.4879C55.0406 17.7077 54.9708 17.8979 54.8209 18.1178C53.9606 19.3283 52.3995 19.8883 50.9489 19.8883C48.3578 19.8883 46.4372 18.2478 46.4371 15.7369V10.7447C46.4371 8.23366 48.3578 6.59334 50.9489 6.59334ZM76.8502 6.59334C78.1707 6.59346 79.9411 7.17348 80.7213 8.36385C80.8713 8.58384 80.941 8.77375 80.941 8.99373C80.941 9.57397 80.3812 10.0748 79.8209 10.0748C79.5008 10.0747 79.2206 9.90391 78.9606 9.57381C78.4804 8.9738 77.6201 8.75353 76.86 8.75349C75.2593 8.75349 74.5084 9.61423 74.5084 10.7447V15.7369C74.5085 16.8573 75.2694 17.7271 76.86 17.7271C77.6802 17.7271 78.3904 17.487 78.9606 16.9068C79.2006 16.5569 79.5009 16.4068 79.8209 16.4068C80.3812 16.4068 80.941 16.9076 80.941 17.4879C80.941 17.7078 80.8713 17.8978 80.7213 18.1178C79.861 19.3281 78.3007 19.8881 76.8502 19.8883C74.2592 19.8883 72.3376 18.2478 72.3375 15.7369V10.7447C72.3375 8.23366 74.2591 6.59334 76.8502 6.59334ZM166.948 6.5826C168.268 6.58272 170.039 7.16372 170.819 8.35408C170.969 8.57406 171.039 8.76396 171.039 8.98396C171.039 9.56418 170.479 10.064 169.919 10.064C169.598 10.064 169.318 9.89414 169.058 9.56404C168.578 8.96393 167.718 8.74377 166.958 8.74373C165.357 8.74373 164.606 9.60447 164.606 10.7349V15.7271C164.606 16.8474 165.367 17.7174 166.958 17.7174C167.778 17.7173 168.488 17.4772 169.058 16.897C169.298 16.547 169.598 16.3971 169.919 16.397C170.479 16.397 171.038 16.897 171.039 17.4771C171.039 17.6972 170.969 17.8879 170.819 18.108C169.959 19.3182 168.398 19.8784 166.948 19.8785C164.357 19.8785 162.435 18.2379 162.435 15.7271V10.7349C162.435 8.22389 164.357 6.5826 166.948 6.5826ZM182.053 6.59334C184.624 6.59334 186.695 8.66387 186.695 11.2349V12.7457C186.695 13.3258 186.195 13.8258 185.615 13.8258H179.573V15.2262C179.573 16.5266 180.823 17.7073 182.273 17.7076C183.093 17.7076 183.804 17.4675 184.375 16.8873C184.615 16.5372 184.915 16.3873 185.235 16.3873C185.795 16.3874 186.355 16.8872 186.355 17.4674C186.355 17.6873 186.285 17.8773 186.135 18.0972C186.135 18.0972 186.045 18.2478 185.855 18.4478C184.945 19.4182 183.584 19.8785 182.273 19.8785C179.792 19.8782 177.412 17.8676 177.412 15.2369V11.2349C177.412 8.6639 179.482 6.59339 182.053 6.59334ZM204.182 6.5826C205.503 6.5826 207.274 7.16358 208.054 8.35408C208.204 8.57404 208.274 8.76397 208.274 8.98396C208.274 9.56418 207.714 10.064 207.154 10.064C206.834 10.064 206.554 9.89418 206.294 9.56404C205.813 8.96392 204.953 8.74379 204.193 8.74373C202.592 8.74373 201.841 9.60447 201.841 10.7349V15.7271C201.842 16.8474 202.603 17.7174 204.193 17.7174C205.013 17.7173 205.723 17.4772 206.294 16.897C206.534 16.547 206.834 16.3971 207.154 16.397C207.714 16.397 208.274 16.897 208.274 17.4771C208.274 17.6972 208.204 17.8879 208.054 18.108C207.194 19.3184 205.633 19.8785 204.182 19.8785C201.592 19.8783 199.671 18.2378 199.671 15.7271V10.7349C199.671 8.22404 201.591 6.58278 204.182 6.5826ZM214.757 6.59334C217.328 6.59356 219.399 8.66401 219.399 11.2349V12.7457C219.399 13.3257 218.899 13.8255 218.319 13.8258H212.276V15.2262C212.276 16.5267 213.527 17.7076 214.977 17.7076C215.797 17.7076 216.508 17.4674 217.078 16.8873C217.318 16.5372 217.618 16.3874 217.938 16.3873C218.498 16.3873 219.059 16.8872 219.059 17.4674C219.059 17.6874 218.988 17.8772 218.839 18.0972C218.839 18.0972 218.748 18.2477 218.558 18.4478C217.648 19.4181 216.288 19.8785 214.977 19.8785C212.496 19.8785 210.115 17.8678 210.115 15.2369V11.2349C210.115 8.66387 212.186 6.59334 214.757 6.59334ZM242.098 6.5826C244.779 6.5826 246.401 8.31393 246.401 10.7349V15.7271C246.401 18.2278 244.35 19.8783 242.059 19.8785C239.858 19.8785 237.697 18.5575 237.697 15.9664C237.697 13.5658 239.688 12.4056 241.758 11.9654L244.24 11.4254V10.7349C244.24 9.52443 243.609 8.74373 242.098 8.74373C240.498 8.74399 240.328 10.064 239.307 10.064C238.727 10.0639 238.227 9.61407 238.227 8.98396C238.227 8.63388 238.397 8.33342 238.617 8.09334C239.477 7.10304 240.778 6.58272 242.098 6.5826ZM155.903 6.5826C157.243 6.58266 158.794 7.31353 159.554 8.48396C159.684 8.67387 159.724 8.89364 159.724 9.08357C159.724 9.69375 159.184 10.1645 158.604 10.1646C158.284 10.1646 158.004 9.99421 157.744 9.64412C157.314 9.04392 156.683 8.69398 155.903 8.69392C154.732 8.69392 154.132 9.36403 154.132 10.0943C154.132 12.3152 160.205 11.5653 160.205 16.0172C160.205 18.438 158.023 19.858 155.753 19.858L155.524 19.8717C154.307 19.8062 152.796 19.2491 152.111 18.2174C151.961 17.9976 151.891 17.7877 151.891 17.5679C151.891 16.9878 152.451 16.487 153.011 16.4869C153.311 16.4869 153.612 16.6575 153.872 16.9576C154.352 17.5377 155.082 17.7574 155.753 17.7574C157.283 17.7574 158.044 16.8472 158.044 16.0269C158.044 13.3658 151.971 14.3659 151.971 10.1041C151.971 7.72328 154.022 6.5826 155.903 6.5826ZM134.593 6.82283C135.154 6.82283 135.714 7.23358 135.714 7.86385C135.714 7.9938 135.694 8.14363 135.624 8.29353L131.532 18.9879C131.312 19.5681 130.932 19.8482 130.542 19.8482C130.132 19.8481 129.741 19.568 129.521 18.9879L125.42 8.29353C125.36 8.14368 125.33 7.99376 125.33 7.86385C125.33 7.23372 125.89 6.82301 126.45 6.82283C126.84 6.82283 127.23 7.01308 127.421 7.51326L130.532 15.7867L133.624 7.51326C133.814 7.01327 134.203 6.8229 134.593 6.82283ZM275.903 4.43221C276.023 4.43221 276.123 4.47229 276.214 4.55232C276.303 4.63224 276.343 4.74198 276.343 4.87166V7.87361H280.445C280.735 7.87366 280.885 8.02325 280.885 8.31306C280.885 8.60314 280.735 8.75345 280.445 8.75349H276.343V16.9566C276.343 17.5269 276.544 17.9974 276.954 18.3775C277.364 18.7576 277.904 18.9478 278.574 18.9478C279.244 18.9478 279.865 18.7174 280.355 18.2672C280.445 18.1974 280.545 18.1578 280.665 18.1578C280.785 18.1578 280.885 18.2075 280.985 18.2974C281.085 18.3875 281.126 18.4977 281.126 18.6178C281.126 18.7178 281.005 18.8777 280.775 19.0777C280.085 19.5779 279.354 19.8287 278.584 19.8287C277.674 19.8286 276.933 19.5583 276.343 19.0084C275.763 18.4581 275.463 17.777 275.463 16.9566V8.75349H273.252C272.962 8.7534 272.812 8.6031 272.812 8.31306C272.812 8.0233 272.962 7.8737 273.252 7.87361H275.463V4.87166C275.463 4.74198 275.503 4.63224 275.592 4.55232C275.682 4.47229 275.783 4.43221 275.903 4.43221ZM317.45 2.94099C317.57 2.94099 317.67 2.98108 317.76 3.06111C317.85 3.14114 317.89 3.25141 317.89 3.38142V16.3873C317.89 16.9173 317.99 17.4278 318.2 17.9478C318.4 18.4579 318.72 18.808 319.14 18.9781C319.328 19.0672 319.418 19.2051 319.42 19.3922C319.419 19.5104 319.379 19.6088 319.3 19.6978C319.22 19.7879 319.121 19.8287 319.001 19.8287C318.871 19.8287 318.701 19.7584 318.501 19.6285C317.51 18.9883 317.009 17.9077 317.009 16.3873V3.38142C317.009 3.25137 317.05 3.14114 317.14 3.06111C317.23 2.9813 317.33 2.94102 317.45 2.94099ZM286.387 7.66365C287.498 7.66365 288.448 8.06375 289.249 8.85408C290.049 9.65425 290.439 10.6043 290.439 11.7144V13.2457C290.439 13.3655 290.399 13.4653 290.309 13.5553C290.219 13.6453 290.119 13.6861 289.999 13.6861H283.206V15.7662C283.206 16.6265 283.546 17.3772 284.226 18.0074C284.906 18.6376 285.697 18.9477 286.607 18.9478C287.087 18.9478 287.588 18.8481 288.108 18.648C288.628 18.448 289.008 18.1777 289.258 17.8277C289.348 17.6977 289.469 17.6276 289.629 17.6275C289.749 17.6275 289.849 17.6674 289.939 17.7574C290.029 17.8474 290.069 17.948 290.069 18.0679C290.069 18.168 289.969 18.3382 289.789 18.5679C288.998 19.3982 287.938 19.8179 286.607 19.8179C285.477 19.8179 284.487 19.4275 283.627 18.6373C282.766 17.847 282.336 16.8866 282.336 15.7662V11.7144C282.336 10.6043 282.736 9.65425 283.526 8.85408C284.326 8.05375 285.277 7.66365 286.387 7.66365ZM296.441 7.65291C297.071 7.65291 297.702 7.78366 298.342 8.03377C298.982 8.29381 299.482 8.66368 299.842 9.16365C299.882 9.25368 299.913 9.33386 299.913 9.40388C299.913 9.52393 299.863 9.62439 299.773 9.71443C299.683 9.8044 299.573 9.8443 299.453 9.84431C299.393 9.84431 299.343 9.83426 299.293 9.80428C299.243 9.77426 299.202 9.75421 299.182 9.7242C299.162 9.69422 299.133 9.66401 299.083 9.60408C299.033 9.5442 299.013 9.50385 298.993 9.49373C298.353 8.85353 297.502 8.53384 296.452 8.53377C295.501 8.53377 294.761 8.7836 294.211 9.28377C293.67 9.78393 293.4 10.4242 293.4 11.2144V16.2769C293.4 17.0672 293.67 17.7074 294.211 18.2076C294.751 18.7078 295.501 18.9576 296.452 18.9576C296.932 18.9575 297.432 18.8578 297.952 18.6578C298.472 18.4578 298.852 18.1875 299.102 17.8375C299.192 17.7075 299.312 17.6374 299.472 17.6373C299.592 17.6373 299.693 17.6772 299.783 17.7672C299.871 17.8558 299.91 17.9543 299.912 18.0719C299.909 18.1724 299.81 18.3412 299.623 18.5679C298.832 19.3982 297.772 19.8179 296.441 19.8179C295.271 19.8179 294.33 19.4983 293.6 18.8482C292.87 18.198 292.509 17.3374 292.509 16.2672V11.2047C292.509 10.1342 292.87 9.28388 293.6 8.62361C294.32 7.97342 295.271 7.65298 296.441 7.65291ZM324.103 7.67342C325.253 7.67349 326.164 7.99311 326.824 8.64314C327.484 9.29332 327.814 10.154 327.814 11.2242L327.824 11.2047V16.2672C327.824 17.3073 327.454 18.1578 326.724 18.8179C325.994 19.4782 325.113 19.8179 324.073 19.8179C323.033 19.8179 322.132 19.5183 321.402 18.9283C320.672 18.3381 320.301 17.5173 320.301 16.4869C320.301 15.5666 320.621 14.8264 321.252 14.2662C321.892 13.706 322.703 13.3154 323.693 13.0953L326.934 12.3951V11.2144C326.934 10.3943 326.694 9.74438 326.214 9.26424C325.733 8.78406 325.033 8.54356 324.113 8.54353C323.643 8.54353 323.233 8.6135 322.882 8.75349C322.532 8.89353 322.272 9.04365 322.112 9.20369C321.952 9.36368 321.802 9.51388 321.652 9.65388C321.502 9.79381 321.382 9.86371 321.282 9.86385C321.162 9.86385 321.061 9.82376 320.971 9.74373C320.881 9.66373 320.841 9.56387 320.841 9.44392C320.841 9.31393 320.931 9.14389 321.101 8.94392C321.832 8.09357 322.833 7.67342 324.103 7.67342ZM330.576 2.94099C330.696 2.94105 330.795 2.98129 330.885 3.06111C330.975 3.14114 331.016 3.25137 331.016 3.38142V9.19392C331.817 8.17367 332.876 7.66369 334.197 7.66365C335.317 7.66365 336.278 8.06375 337.068 8.85408C337.858 9.65429 338.249 10.6042 338.249 11.7144H338.239V15.7662C338.239 16.8967 337.849 17.8479 337.058 18.6383C336.268 19.4284 335.307 19.8179 334.187 19.8179C333.067 19.8179 332.106 19.4284 331.316 18.6383C330.526 17.8479 330.135 16.8867 330.135 15.7662V3.38142C330.135 3.25138 330.175 3.14114 330.265 3.06111C330.355 2.98108 330.456 2.94099 330.576 2.94099ZM258.605 1.94099C259.145 1.94099 259.686 2.31091 259.686 3.02107V12.4254L264.158 7.19295C264.398 6.91304 264.678 6.78293 264.958 6.78279C265.538 6.78279 266.079 7.30313 266.079 7.88338C266.079 8.12345 265.989 8.36374 265.798 8.57381L262.387 12.5748L266.409 17.9371C266.579 18.1571 266.649 18.3875 266.649 18.5875C266.649 19.1877 266.088 19.6881 265.528 19.6881L265.406 19.6724C265.144 19.6432 264.888 19.5081 264.678 19.2281L260.936 14.2564L259.686 15.7262V18.5777C259.686 19.288 259.145 19.6578 258.605 19.6578C258.065 19.6576 257.525 19.2879 257.525 18.5777V3.02107C257.525 2.31106 258.065 1.94115 258.605 1.94099ZM58.4225 6.82283C58.9625 6.82293 59.5023 7.19299 59.5026 7.90291V18.5982C59.5023 19.3081 58.9625 19.6782 58.4225 19.6783C57.8824 19.6783 57.3416 19.3082 57.3414 18.5982V7.90291C57.3416 7.19289 57.8824 6.82283 58.4225 6.82283ZM122.369 6.82283C122.909 6.82283 123.449 7.19289 123.449 7.90291V18.5982C123.449 19.3082 122.909 19.6783 122.369 19.6783C121.829 19.6783 121.289 19.3082 121.289 18.5982V7.90291C121.289 7.19292 121.829 6.82287 122.369 6.82283ZM86.8844 6.6031C87.8748 6.6032 89.1552 7.0333 89.8854 7.79353C90.1053 8.03347 90.2056 8.29337 90.2057 8.5533C90.2057 9.1335 89.6653 9.65381 89.1051 9.65388C88.8451 9.65388 88.5649 9.54424 88.3248 9.30428L88.2848 9.26424C87.8947 8.94418 87.3745 8.76432 86.8844 8.76424C85.6539 8.76424 84.8336 9.58434 84.8336 11.3951V18.5875C84.8336 19.2978 84.2928 19.6685 83.7526 19.6685C83.2124 19.6684 82.6725 19.2977 82.6725 18.5875V11.3951C82.6725 8.86404 84.0532 6.6031 86.8844 6.6031ZM192.988 6.59334C195.559 6.59334 197.63 8.66387 197.63 11.2349V18.5777C197.63 19.288 197.09 19.6588 196.549 19.6588C196.009 19.6587 195.469 19.2879 195.469 18.5777V11.2349C195.469 9.85436 194.368 8.75349 192.988 8.75349C191.607 8.75364 190.507 9.85445 190.507 11.2349V18.5777C190.507 19.288 189.967 19.6588 189.426 19.6588C188.886 19.6586 188.346 19.2879 188.346 18.5777V11.2349C188.346 8.66396 190.417 6.59348 192.988 6.59334ZM174.421 6.8033C174.961 6.8033 175.501 7.17308 175.501 7.88338V18.5777C175.501 19.288 174.961 19.6578 174.421 19.6578C173.88 19.6578 173.34 19.288 173.34 18.5777V7.88338C173.34 7.17312 173.88 6.80334 174.421 6.8033ZM252.672 6.5826C253.663 6.5826 254.944 7.01275 255.674 7.77303C255.895 8.01313 255.995 8.27366 255.995 8.53377C255.995 9.11388 255.454 9.63415 254.894 9.63435C254.634 9.63435 254.354 9.52383 254.114 9.28377L254.074 9.24373C253.684 8.92359 253.163 8.74373 252.672 8.74373C251.442 8.74393 250.622 9.56427 250.622 11.3746V18.5679C250.622 19.2782 250.082 19.648 249.542 19.648C249.001 19.648 248.462 19.2782 248.462 18.5679V11.3746C248.462 8.84379 249.842 6.58283 252.672 6.5826ZM302.314 2.94099C302.434 2.94106 302.534 2.98128 302.624 3.06111C302.714 3.14114 302.754 3.25137 302.754 3.38142V9.19392C303.554 8.17353 304.615 7.66368 305.935 7.66365C307.056 7.66365 308.016 8.06375 308.806 8.85408C309.596 9.65428 309.987 10.6042 309.987 11.7144H309.997V19.1676C309.997 19.2976 309.957 19.4078 309.867 19.4879C309.777 19.5678 309.677 19.6079 309.557 19.608C309.437 19.608 309.337 19.5679 309.247 19.4879C309.157 19.4078 309.117 19.2976 309.117 19.1676V11.7144C309.117 10.8344 308.806 10.0845 308.186 9.46443C307.566 8.84417 306.816 8.53377 305.935 8.53377C305.055 8.53379 304.304 8.8442 303.684 9.46443C303.064 10.0845 302.754 10.8344 302.754 11.7144V19.1676C302.754 19.2976 302.714 19.4078 302.624 19.4879C302.534 19.5678 302.434 19.6079 302.314 19.608C302.194 19.608 302.094 19.5679 302.004 19.4879C301.914 19.4079 301.874 19.2975 301.874 19.1676V3.38142C301.874 3.25137 301.914 3.14114 302.004 3.06111C302.094 2.98109 302.194 2.94099 302.314 2.94099ZM319.421 19.398C319.421 19.3961 319.42 19.3941 319.42 19.3922C319.42 19.3909 319.421 19.3896 319.421 19.3883V19.398ZM334.177 8.53377C333.297 8.53377 332.547 8.84417 331.926 9.46443C331.306 10.0846 330.996 10.8343 330.996 11.7144V15.7662C330.996 16.6465 331.306 17.3969 331.926 18.0172C332.547 18.6374 333.297 18.9478 334.177 18.9478C335.058 18.9478 335.798 18.6374 336.428 18.0172C337.058 17.397 337.358 16.6464 337.358 15.7662V11.7144C337.358 10.8345 337.048 10.0845 336.428 9.46443C335.808 8.84424 335.058 8.53384 334.177 8.53377ZM323.833 13.9957C323.022 14.1858 322.382 14.4964 321.902 14.9166C321.422 15.3367 321.181 15.8667 321.181 16.4869C321.181 17.2271 321.452 17.827 321.982 18.2672C322.512 18.7073 323.213 18.9381 324.073 18.9381C324.933 18.938 325.573 18.6881 326.124 18.1881C326.674 17.6879 326.944 17.0472 326.944 16.2769V13.3053L323.833 13.9957ZM299.913 18.0777C299.913 18.0758 299.912 18.0737 299.912 18.0719C299.912 18.0705 299.913 18.0692 299.913 18.0679V18.0777ZM106.252 14.066C104.821 14.3661 104.132 15.1663 104.131 15.9664C104.131 17.0068 104.912 17.7379 106.312 17.7379C107.633 17.7378 108.513 16.8771 108.513 15.7467V13.5474L106.252 14.066ZM40.0446 8.76424C38.664 8.76424 37.5632 9.86421 37.5631 11.2447V15.2467C37.5632 16.6272 38.664 17.7271 40.0446 17.7271C41.4251 17.7271 42.5259 16.6272 42.526 15.2467V11.2447C42.5259 9.86422 41.4251 8.76426 40.0446 8.76424ZM230.984 8.75349C229.603 8.7535 228.503 9.85437 228.503 11.2349V15.2369C228.503 16.6173 229.604 17.7174 230.984 17.7174C232.364 17.7174 233.465 16.6173 233.465 15.2369V11.2349C233.465 9.85436 232.365 8.75349 230.984 8.75349ZM241.968 14.0465C240.538 14.3467 239.848 15.1466 239.848 15.9469C239.848 16.9873 240.628 17.7174 242.029 17.7174C243.349 17.7173 244.23 16.8573 244.23 15.7271V13.5279L241.968 14.0465ZM66.0856 11.8248C66.8656 11.825 67.5151 12.4754 67.5153 13.2554C67.5153 14.0356 66.8657 14.6859 66.0856 14.6861C65.3052 14.6861 64.6549 14.0358 64.6549 13.2554C64.655 12.4752 65.3053 11.8248 66.0856 11.8248ZM286.378 8.524C285.497 8.524 284.747 8.83357 284.127 9.45369C283.506 10.0739 283.196 10.8244 283.196 11.7047V12.8053H289.558V11.7047C289.558 10.8244 289.249 10.0739 288.629 9.45369C288.008 8.83348 287.258 8.52405 286.378 8.524ZM95.8278 8.774C94.4473 8.77402 93.3465 9.8741 93.3463 11.2545V11.6851H98.319V11.2545H98.3092C98.309 9.87409 97.2082 8.774 95.8278 8.774ZM141.106 8.774C139.726 8.7742 138.626 9.87421 138.626 11.2545V11.6851H143.597V11.2545H143.588C143.587 9.87409 142.487 8.774 141.106 8.774ZM182.063 8.75349C180.683 8.75368 179.583 9.85448 179.583 11.2349V11.6646H184.554V11.2349H184.545C184.545 9.85436 183.444 8.75349 182.063 8.75349ZM214.767 8.75349C213.387 8.75349 212.286 9.85436 212.286 11.2349V11.6646H217.258V11.2349H217.248C217.248 9.85442 216.148 8.75359 214.767 8.75349ZM58.4225 1.96053C59.2026 1.96065 59.853 2.61106 59.8531 3.39119C59.8531 4.17144 59.2027 4.82173 58.4225 4.82185C57.6422 4.82185 56.9918 4.17151 56.9918 3.39119C56.992 2.61098 57.6422 1.96053 58.4225 1.96053ZM122.369 1.96053C123.149 1.96053 123.799 2.61098 123.799 3.39119C123.799 4.17151 123.149 4.82185 122.369 4.82185C121.588 4.82181 120.938 4.17149 120.938 3.39119C120.938 2.61101 121.589 1.96057 122.369 1.96053ZM174.421 1.94099C175.201 1.94099 175.851 2.59133 175.851 3.37166C175.851 4.15188 175.201 4.80232 174.421 4.80232C173.64 4.80227 173 4.15185 173 3.37166C173 2.59136 173.65 1.94104 174.421 1.94099Z" fill="white"></path><path d="M23.1671 19.8983L14.7036 16.2668L20.0658 11.4048L22.4868 15.6765C23.3772 17.2472 23.6173 18.7678 23.1671 19.9083M18.9053 22.0792H8.30091L13.363 17.4873L22.0967 21.2389C21.3163 21.7891 20.2159 22.0892 18.9053 22.0892M5.85989 22.0592C4.13917 21.9592 2.82863 21.3189 2.22838 20.2584C1.82821 19.5482 1.73817 18.6578 1.94826 17.6674L6.88032 14.6861L11.7023 16.757L5.85989 22.0592ZM7.78069 6.76282L11.4822 9.98416L3.08873 15.0463L7.78069 6.76282ZM9.15126 4.36182C9.2413 4.20175 9.33134 4.05169 9.43138 3.91163C10.3518 2.58108 11.4822 1.83076 12.6127 1.83076C13.253 1.83076 13.8932 2.07086 14.5035 2.53106L11.8324 8.10338L8.62104 5.30221L9.16127 4.37182L9.15126 4.36182ZM15.4039 13.4056L13.0429 15.5465L8.61104 13.6457L12.7828 11.1246L15.4039 13.4056ZM15.774 3.89162C15.8741 4.04169 15.9741 4.20175 16.0742 4.37182L16.6344 5.34223L19.2355 9.93414L16.6344 12.2951L13.1329 9.24385L15.734 3.8316C15.734 3.8316 15.764 3.87161 15.784 3.90163M24.0875 14.7662L17.7949 3.65152C16.4843 1.33056 14.5935 0 12.6127 0C10.6319 0 8.74109 1.33056 7.43055 3.65152L1.13792 14.7662C-0.172626 17.0871 -0.362705 19.4181 0.627708 21.1688C1.61812 22.9196 3.68899 23.92 6.32008 23.92H18.9053C21.5364 23.92 23.6073 22.9196 24.5977 21.1688C25.5881 19.4181 25.398 17.0871 24.0875 14.7662Z" fill="#874FFF"></path></svg>